<svg width="20" height="20" viewBox="0 0 20 20" fill="none" xmlns="http://www.w3.org/2000/svg">
<g clip-path="url(#clip0_1149_3436)">
<path d="M11.0187 16.8519C10.8776 17.0951 10.6751 17.297 10.4315 17.4373C10.1878 17.5777 9.91159 17.6515 9.63043 17.6515C9.34926 17.6515 9.07302 17.5777 8.82938 17.4373C8.58574 17.297 8.38324 17.0951 8.24215 16.8519M14.4452 6.4198C14.4452 5.14283 13.938 3.91816 13.035 3.01521C12.1321 2.11225 10.9074 1.60498 9.63043 1.60498C8.35346 1.60498 7.12879 2.11225 6.22584 3.01521C5.32288 3.91816 4.81561 5.14283 4.81561 6.4198C4.81561 12.0371 2.4082 13.642 2.4082 13.642H16.8526C16.8526 13.642 14.4452 12.0371 14.4452 6.4198Z" stroke="#2C4859" stroke-width="1.5" stroke-linecap="round" stroke-linejoin="round"/>
</g>
<defs>
<clipPath id="clip0_1149_3436">
<rect width="19.2593" height="19.2593" fill="white"/>
</clipPath>
</defs>
</svg>
