<svg width="20" height="20" viewBox="0 0 20 20" fill="none" xmlns="http://www.w3.org/2000/svg">
<g clip-path="url(#clip0_1149_2110)">
<path d="M11.0177 16.8519C10.8766 17.0951 10.6741 17.297 10.4305 17.4373C10.1869 17.5777 9.91062 17.6515 9.62945 17.6515C9.34828 17.6515 9.07205 17.5777 8.8284 17.4373C8.58476 17.297 8.38226 17.0951 8.24118 16.8519M14.4443 6.4198C14.4443 5.14283 13.937 3.91816 13.034 3.01521C12.1311 2.11225 10.9064 1.60498 9.62945 1.60498C8.35248 1.60498 7.12781 2.11225 6.22486 3.01521C5.32191 3.91816 4.81463 5.14283 4.81463 6.4198C4.81463 12.0371 2.40723 13.642 2.40723 13.642H16.8517C16.8517 13.642 14.4443 12.0371 14.4443 6.4198Z" stroke="#2C4859" stroke-width="1.5" stroke-linecap="round" stroke-linejoin="round"/>
</g>
<defs>
<clipPath id="clip0_1149_2110">
<rect width="19.2593" height="19.2593" fill="white"/>
</clipPath>
</defs>
</svg>
