<svg width="20" height="20" viewBox="0 0 20 20" fill="none" xmlns="http://www.w3.org/2000/svg">
<g clip-path="url(#clip0_1147_1268)">
<path d="M11.018 16.8518C10.8769 17.095 10.6744 17.2969 10.4307 17.4373C10.1871 17.5776 9.91086 17.6515 9.62969 17.6515C9.34852 17.6515 9.07229 17.5776 8.82865 17.4373C8.585 17.2969 8.3825 17.095 8.24142 16.8518M14.4445 6.41973C14.4445 5.14277 13.9372 3.9181 13.0343 3.01515C12.1313 2.11219 10.9067 1.60492 9.62969 1.60492C8.35272 1.60492 7.12806 2.11219 6.2251 3.01515C5.32215 3.9181 4.81488 5.14277 4.81488 6.41973C4.81488 12.037 2.40747 13.642 2.40747 13.642H16.8519C16.8519 13.642 14.4445 12.037 14.4445 6.41973Z" stroke="white" stroke-width="1.5" stroke-linecap="round" stroke-linejoin="round"/>
</g>
<defs>
<clipPath id="clip0_1147_1268">
<rect width="19.2593" height="19.2593" fill="white"/>
</clipPath>
</defs>
</svg>
