<svg width="20" height="20" viewBox="0 0 20 20" fill="none" xmlns="http://www.w3.org/2000/svg">
<path d="M11.018 16.8519C10.8769 17.0951 10.6744 17.297 10.4307 17.4373C10.1871 17.5776 9.91086 17.6515 9.62969 17.6515C9.34852 17.6515 9.07229 17.5776 8.82865 17.4373C8.585 17.297 8.3825 17.0951 8.24142 16.8519M14.4445 6.41976C14.4445 5.1428 13.9372 3.91813 13.0343 3.01518C12.1313 2.11222 10.9067 1.60495 9.62969 1.60495C8.35272 1.60495 7.12806 2.11222 6.2251 3.01518C5.32215 3.91813 4.81488 5.1428 4.81488 6.41976C4.81488 12.037 2.40747 13.642 2.40747 13.642H16.8519C16.8519 13.642 14.4445 12.037 14.4445 6.41976Z" stroke="#2C4859" stroke-width="1.5" stroke-linecap="round" stroke-linejoin="round"/>
</svg>
