<svg width="20" height="20" viewBox="0 0 20 20" fill="none" xmlns="http://www.w3.org/2000/svg">
<g clip-path="url(#clip0_1149_1402)">
<path d="M11.018 16.8519C10.8769 17.0951 10.6744 17.297 10.4307 17.4373C10.1871 17.5777 9.91086 17.6515 9.62969 17.6515C9.34852 17.6515 9.07229 17.5777 8.82865 17.4373C8.585 17.297 8.3825 17.0951 8.24142 16.8519M14.4445 6.4198C14.4445 5.14283 13.9372 3.91816 13.0343 3.01521C12.1313 2.11225 10.9067 1.60498 9.62969 1.60498C8.35272 1.60498 7.12806 2.11225 6.2251 3.01521C5.32215 3.91816 4.81488 5.14283 4.81488 6.4198C4.81488 12.0371 2.40747 13.642 2.40747 13.642H16.8519C16.8519 13.642 14.4445 12.0371 14.4445 6.4198Z" stroke="#2C4859" stroke-width="1.5" stroke-linecap="round" stroke-linejoin="round"/>
</g>
<defs>
<clipPath id="clip0_1149_1402">
<rect width="19.2593" height="19.2593" fill="white"/>
</clipPath>
</defs>
</svg>
