<svg width="20" height="20" viewBox="0 0 20 20" fill="none" xmlns="http://www.w3.org/2000/svg">
<path d="M11.0178 16.8519C10.8768 17.0951 10.6743 17.297 10.4306 17.4373C10.187 17.5776 9.91074 17.6515 9.62957 17.6515C9.3484 17.6515 9.07217 17.5776 8.82853 17.4373C8.58488 17.297 8.38238 17.0951 8.2413 16.8519M14.4444 6.41976C14.4444 5.1428 13.9371 3.91813 13.0342 3.01518C12.1312 2.11222 10.9065 1.60495 9.62957 1.60495C8.3526 1.60495 7.12794 2.11222 6.22498 3.01518C5.32203 3.91813 4.81476 5.1428 4.81476 6.41976C4.81476 12.037 2.40735 13.642 2.40735 13.642H16.8518C16.8518 13.642 14.4444 12.037 14.4444 6.41976Z" stroke="#2C4859" stroke-width="1.5" stroke-linecap="round" stroke-linejoin="round"/>
</svg>
