<svg width="20" height="20" viewBox="0 0 20 20" fill="none" xmlns="http://www.w3.org/2000/svg">
<path d="M11.0179 16.8519C10.8768 17.0951 10.6743 17.297 10.4307 17.4373C10.187 17.5776 9.9108 17.6515 9.62963 17.6515C9.34846 17.6515 9.07223 17.5776 8.82859 17.4373C8.58494 17.297 8.38244 17.0951 8.24136 16.8519M14.4444 6.41976C14.4444 5.1428 13.9372 3.91813 13.0342 3.01518C12.1313 2.11222 10.9066 1.60495 9.62963 1.60495C8.35266 1.60495 7.128 2.11222 6.22504 3.01518C5.32209 3.91813 4.81482 5.1428 4.81482 6.41976C4.81482 12.037 2.40741 13.642 2.40741 13.642H16.8519C16.8519 13.642 14.4444 12.037 14.4444 6.41976Z" stroke="#2C4859" stroke-width="1.5" stroke-linecap="round" stroke-linejoin="round"/>
</svg>
