<svg width="20" height="20" viewBox="0 0 20 20" fill="none" xmlns="http://www.w3.org/2000/svg">
<path d="M11.0177 16.8519C10.8766 17.0951 10.6741 17.297 10.4305 17.4373C10.1869 17.5776 9.91062 17.6515 9.62945 17.6515C9.34828 17.6515 9.07205 17.5776 8.8284 17.4373C8.58476 17.297 8.38226 17.0951 8.24118 16.8519M14.4443 6.41976C14.4443 5.1428 13.937 3.91813 13.034 3.01518C12.1311 2.11222 10.9064 1.60495 9.62945 1.60495C8.35248 1.60495 7.12781 2.11222 6.22486 3.01518C5.32191 3.91813 4.81463 5.1428 4.81463 6.41976C4.81463 12.037 2.40723 13.642 2.40723 13.642H16.8517C16.8517 13.642 14.4443 12.037 14.4443 6.41976Z" stroke="#2C4859" stroke-width="1.5" stroke-linecap="round" stroke-linejoin="round"/>
</svg>
