<svg width="21" height="18" viewBox="0 0 21 18" fill="none" xmlns="http://www.w3.org/2000/svg">
<g clip-path="url(#clip0_1149_3995)">
<path d="M11.4257 0C11.7827 0.0859784 12.1536 0.102619 12.5161 0.169183C16.9476 0.990139 20.3277 4.7094 20.8855 9.1359C20.9301 9.47981 20.9189 9.84314 20.997 10.176C20.9886 10.3951 21.0082 10.6197 20.997 10.8416C20.8687 13.3239 19.9121 15.7174 18.1942 17.5424C18.0994 17.6422 17.7592 18.0333 17.6532 17.9806L16.3201 16.5522C19.3125 13.7843 19.8118 9.1775 17.5723 5.78552C15.0066 1.89985 9.67988 0.807088 5.77271 3.40586C1.26315 6.40123 0.719323 12.8274 4.63207 16.5522C4.65438 16.677 3.46912 17.8086 3.31574 18C-0.638845 14.5304 -1.01813 8.57565 1.97151 4.3322C3.66434 1.92481 6.54801 0.213559 9.5237 0H11.4285H11.4257Z" fill="#2C4859"/>
<path d="M14.3347 5.58582L15.7486 7.08074L12.402 10.0955C12.3184 10.4949 12.3909 10.7834 12.2096 11.1827C11.3423 13.0909 8.42234 12.3587 8.65102 10.151C8.77094 9 9.9562 8.43698 11.016 8.56456L14.1534 5.69954L14.3347 5.58582Z" fill="#2C4859"/>
<path d="M13.59 14.3196H7.41553V16.3664H13.59V14.3196Z" fill="#2C4859"/>
</g>
<defs>
<clipPath id="clip0_1149_3995">
<rect width="21" height="18" fill="white"/>
</clipPath>
</defs>
</svg>
