<svg width="21" height="18" viewBox="0 0 21 18" fill="none" xmlns="http://www.w3.org/2000/svg">
<g clip-path="url(#clip0_1149_3424)">
<path d="M11.4263 0C11.7833 0.0859784 12.1542 0.102619 12.5167 0.169183C16.9482 0.990139 20.3283 4.7094 20.8861 9.1359C20.9307 9.47981 20.9195 9.84314 20.9976 10.176C20.9893 10.3951 21.0088 10.6197 20.9976 10.8416C20.8693 13.3239 19.9128 15.7174 18.1948 17.5424C18.1 17.6422 17.7598 18.0333 17.6538 17.9806L16.3207 16.5522C19.3132 13.7843 19.8124 9.1775 17.5729 5.78552C15.0072 1.89985 9.68049 0.807088 5.77332 3.40586C1.26376 6.40123 0.719933 12.8274 4.63268 16.5522C4.65499 16.677 3.46973 17.8086 3.31635 18C-0.638234 14.5304 -1.01752 8.57565 1.97212 4.3322C3.66495 1.92481 6.54862 0.213559 9.52431 0H11.4291H11.4263Z" fill="#2C4859"/>
<path d="M14.3351 5.58594L15.749 7.08085L12.4024 10.0956C12.3187 10.495 12.3912 10.7835 12.21 11.1829C11.3426 13.091 8.4227 12.3588 8.65139 10.1511C8.77131 9.00011 9.95657 8.43709 11.0163 8.56467L14.1538 5.69965L14.3351 5.58594Z" fill="#2C4859"/>
<path d="M13.5905 14.3196H7.41602V16.3664H13.5905V14.3196Z" fill="#2C4859"/>
</g>
<defs>
<clipPath id="clip0_1149_3424">
<rect width="21" height="18" fill="white"/>
</clipPath>
</defs>
</svg>
