<svg width="21" height="18" viewBox="0 0 21 18" fill="none" xmlns="http://www.w3.org/2000/svg">
<g clip-path="url(#clip0_1149_697)">
<path d="M11.4257 0C11.7827 0.0859784 12.1536 0.102619 12.5162 0.169183C16.9476 0.990139 20.3277 4.7094 20.8855 9.1359C20.9301 9.47981 20.919 9.84314 20.997 10.176C20.9887 10.3951 21.0082 10.6197 20.997 10.8416C20.8688 13.3239 19.9122 15.7174 18.1943 17.5424C18.0994 17.6422 17.7592 18.0333 17.6532 17.9806L16.3201 16.5522C19.3126 13.7843 19.8118 9.1775 17.5723 5.78552C15.0066 1.89985 9.67991 0.807088 5.77274 3.40586C1.26318 6.40123 0.719353 12.8274 4.6321 16.5522C4.65441 16.677 3.46915 17.8086 3.31577 18C-0.638814 14.5304 -1.0181 8.57565 1.97154 4.3322C3.66437 1.92481 6.54804 0.213559 9.52374 0H11.4285H11.4257Z" fill="#2C4859"/>
<path d="M14.3347 5.58583L15.7486 7.08075L12.402 10.0955C12.3183 10.4949 12.3908 10.7834 12.2096 11.1827C11.3422 13.0909 8.42231 12.3587 8.65099 10.151C8.77091 9.00001 9.95617 8.43699 11.0159 8.56457L14.1534 5.69954L14.3347 5.58583Z" fill="#2C4859"/>
<path d="M13.5901 14.3196H7.41556V16.3664H13.5901V14.3196Z" fill="#2C4859"/>
</g>
<defs>
<clipPath id="clip0_1149_697">
<rect width="21" height="18" fill="white"/>
</clipPath>
</defs>
</svg>
