<svg width="21" height="18" viewBox="0 0 21 18" fill="none" xmlns="http://www.w3.org/2000/svg">
<g clip-path="url(#clip0_1146_1118)">
<path d="M11.4258 0C11.7828 0.0859784 12.1537 0.102619 12.5163 0.169183C16.9477 0.990139 20.3278 4.7094 20.8856 9.1359C20.9302 9.47981 20.919 9.84314 20.9971 10.176C20.9888 10.3951 21.0083 10.6197 20.9971 10.8416C20.8688 13.3239 19.9123 15.7174 18.1943 17.5424C18.0995 17.6422 17.7593 18.0333 17.6533 17.9806L16.3202 16.5522C19.3127 13.7843 19.8119 9.1775 17.5724 5.78552C15.0067 1.89985 9.68 0.807088 5.77283 3.40586C1.26327 6.40123 0.719445 12.8274 4.63219 16.5522C4.6545 16.677 3.46925 17.8086 3.31586 18C-0.638722 14.5304 -1.01801 8.57565 1.97164 4.3322C3.66446 1.92481 6.54813 0.213559 9.52383 0H11.4286H11.4258Z" fill="#2C4859"/>
<path d="M14.3346 5.58583L15.7485 7.08075L12.4019 10.0955C12.3182 10.4949 12.3907 10.7834 12.2095 11.1827C11.3421 13.0909 8.42222 12.3587 8.6509 10.151C8.77082 9.00001 9.95608 8.43699 11.0158 8.56457L14.1533 5.69954L14.3346 5.58583Z" fill="#2C4859"/>
<path d="M13.59 14.3196H7.41553V16.3664H13.59V14.3196Z" fill="#2C4859"/>
</g>
<defs>
<clipPath id="clip0_1146_1118">
<rect width="21" height="18" fill="white"/>
</clipPath>
</defs>
</svg>
