<svg width="21" height="18" viewBox="0 0 21 18" fill="none" xmlns="http://www.w3.org/2000/svg">
<g clip-path="url(#clip0_1149_2556)">
<path d="M11.4253 0C11.7823 0.0859784 12.1532 0.102619 12.5158 0.169183C16.9472 0.990139 20.3273 4.7094 20.8851 9.1359C20.9297 9.47981 20.9186 9.84314 20.9966 10.176C20.9883 10.3951 21.0078 10.6197 20.9966 10.8416C20.8684 13.3239 19.9118 15.7174 18.1939 17.5424C18.099 17.6422 17.7588 18.0333 17.6528 17.9806L16.3198 16.5522C19.3122 13.7843 19.8114 9.1775 17.5719 5.78552C15.0062 1.89985 9.67951 0.807088 5.77234 3.40586C1.26278 6.40123 0.718957 12.8274 4.63171 16.5522C4.65402 16.677 3.46876 17.8086 3.31537 18C-0.639211 14.5304 -1.01849 8.57565 1.97115 4.3322C3.66398 1.92481 6.54764 0.213559 9.52334 0H11.4281H11.4253Z" fill="#2C4859"/>
<path d="M14.3341 5.58582L15.748 7.08073L12.4014 10.0955C12.3177 10.4949 12.3903 10.7833 12.209 11.1827C11.3416 13.0909 8.42173 12.3587 8.65041 10.151C8.77033 8.99999 9.95559 8.43697 11.0154 8.56455L14.1528 5.69953L14.3341 5.58582Z" fill="#2C4859"/>
<path d="M13.5895 14.3196H7.41504V16.3664H13.5895V14.3196Z" fill="#2C4859"/>
</g>
<defs>
<clipPath id="clip0_1149_2556">
<rect width="21" height="18" fill="white"/>
</clipPath>
</defs>
</svg>
