<svg width="19" height="22" viewBox="0 0 19 22" fill="none" xmlns="http://www.w3.org/2000/svg">
<path d="M17.3057 0.199829L17.3467 0.204712C17.3602 0.207535 17.374 0.210841 17.3867 0.216431C17.7753 0.386932 18.0477 0.728936 18.0654 1.19104V1.19885L18.0557 16.1569C18.0594 16.1829 18.0633 16.2083 18.0654 16.233C18.1075 16.7256 18.1201 17.9132 18.0518 18.401V18.402C18.0282 18.568 17.9368 18.7702 17.8184 18.9303C17.7578 19.0121 17.6845 19.0916 17.5996 19.152C17.5152 19.2119 17.408 19.2613 17.2861 19.2614H15.8311V20.7633C15.831 20.8752 15.7913 20.9825 15.7412 21.0719C15.6899 21.1634 15.6199 21.25 15.543 21.3248C15.4659 21.3998 15.3762 21.4681 15.2822 21.5172C15.1918 21.5644 15.0847 21.6 14.9736 21.5983L5.36328 21.6002C5.35736 21.6002 5.35062 21.6007 5.34473 21.6002C4.85504 21.5566 4.47631 21.2713 4.16211 20.9606C4.00439 20.8046 3.85531 20.6337 3.71484 20.4762C3.65687 20.4112 3.59981 20.3487 3.54395 20.2887C3.47873 20.2227 3.41024 20.1534 3.33887 20.0817C3.32618 20.0698 3.31447 20.057 3.30176 20.0455C3.30025 20.0442 3.29932 20.0421 3.29785 20.0406C3.01495 19.7567 2.69205 19.4351 2.36719 19.111C1.61148 18.357 0.841667 17.5822 0.602539 17.276C0.371839 16.9809 0.276858 16.6962 0.205078 16.3541C0.202264 16.3407 0.200195 16.3269 0.200195 16.3131V3.39417C0.200195 3.3817 0.201786 3.3693 0.204102 3.35706C0.23394 3.19977 0.337126 3.00602 0.458008 2.8551C0.520286 2.77736 0.594669 2.70173 0.676758 2.64417C0.756746 2.58815 0.860703 2.53772 0.978516 2.53772H2.43262V1.03577C2.43269 0.831774 2.56194 0.643781 2.68359 0.515259C2.8103 0.381471 2.97531 0.262498 3.125 0.210571L3.19043 0.199829H17.3057ZM1.23828 16.1158L4.76562 16.1569C4.78547 16.1571 4.80531 16.1606 4.82422 16.1666C5.06416 16.2432 5.3128 16.3974 5.43652 16.6725H5.43555C5.44932 16.703 5.47652 16.7814 5.49512 16.8385C5.50556 16.8706 5.51569 16.9027 5.52344 16.9283C5.52727 16.9411 5.53135 16.9539 5.53418 16.9645C5.53551 16.9694 5.53667 16.9757 5.53809 16.9821C5.5388 16.9853 5.54006 16.9909 5.54102 16.9967C5.54167 17.0007 5.54395 17.0141 5.54395 17.0309V20.5426H14.793V5.95764C14.793 5.95445 14.7938 5.95101 14.7939 5.94788V3.59338H1.23828V16.1158ZM4.12109 19.4235C4.197 19.4909 4.27404 19.5657 4.34375 19.6412C4.40574 19.7084 4.45722 19.7654 4.50684 19.8209V17.2106H1.9873L4.12109 19.4235ZM3.4707 2.5387H15.0527C15.1457 2.5387 15.2319 2.57579 15.2949 2.61194C15.3624 2.65068 15.4281 2.70226 15.4863 2.75549C15.5966 2.8564 15.7109 2.99499 15.7578 3.11975H15.7588C15.7725 3.15648 15.7794 3.2004 15.7842 3.23401C15.7897 3.27286 15.7945 3.31959 15.7988 3.3717C15.8074 3.47629 15.8142 3.61107 15.8203 3.76428C15.8325 4.07117 15.8405 4.46049 15.8447 4.84924C15.849 5.23816 15.85 5.62866 15.8477 5.93811C15.8454 6.23954 15.8401 6.4803 15.8311 6.5592V18.2047H17.0264V16.0055C17.0264 15.9635 17.0395 15.9324 17.043 15.9244C17.0436 15.9231 17.0443 15.9218 17.0449 15.9205L17.0283 1.30139L17.0195 1.25647H3.4707V2.5387Z" fill="#2C4859" stroke="#2C4859" stroke-width="0.4" stroke-linejoin="round"/>
</svg>
