<svg width="14" height="17" viewBox="0 0 14 17" fill="none" xmlns="http://www.w3.org/2000/svg">
<path d="M8.66061 8.90053C11.3769 10.1976 13.2331 13.1 13.1511 16.138C13.0017 16.1146 12.8624 16.1792 12.7176 16.1852C12.4019 16.198 12.0688 16.1838 11.7554 16.1852C10.3129 16.1916 8.88101 16.1586 7.44132 16.1421C7.26766 16.1403 7.11782 16.1989 6.90201 16.1774C6.55972 16.1426 6.53865 15.9264 6.32512 15.7015C5.98971 15.3484 5.62452 15.0282 5.27032 14.6948L11.4557 14.6261C11.1102 12.9342 9.91611 11.3504 8.42647 10.4862C8.1882 10.3478 7.26216 9.8738 7.04497 9.91685C6.96936 9.93196 6.90155 10.003 6.82778 10.0231C6.67703 10.0643 5.78489 10.2883 5.72762 10.2292C5.71433 9.72311 5.51913 9.24953 5.40687 8.76358C7.60307 8.49977 9.11241 6.52163 8.63862 4.31906C8.29405 2.71832 6.70314 1.48078 5.071 1.49819C3.19784 1.51788 1.65597 2.97389 1.46581 4.8247C0.981026 4.70562 0.507696 4.50914 0 4.5041C0.0696478 3.36869 0.678149 2.22321 1.48826 1.43406C3.2432 -0.275225 6.08181 -0.477665 8.07915 0.939873C9.81209 2.16963 10.592 4.31586 10.0957 6.37369C9.85608 7.36803 9.33785 8.15077 8.66061 8.90007V8.90053Z" fill="#2C4859"/>
</svg>
