<svg width="14" height="17" viewBox="0 0 14 17" fill="none" xmlns="http://www.w3.org/2000/svg">
<path d="M8.66061 8.9004C11.3769 10.1975 13.2331 13.0999 13.1511 16.1379C13.0017 16.1145 12.8624 16.1791 12.7176 16.185C12.4019 16.1979 12.0688 16.1837 11.7554 16.185C10.3129 16.1914 8.88101 16.1585 7.44132 16.142C7.26766 16.1402 7.11782 16.1988 6.90201 16.1772C6.55972 16.1424 6.53865 15.9263 6.32512 15.7014C5.98971 15.3483 5.62452 15.0281 5.27032 14.6947L11.4557 14.626C11.1102 12.9341 9.91611 11.3503 8.42647 10.486C8.1882 10.3477 7.26216 9.87367 7.04497 9.91673C6.96936 9.93184 6.90155 10.0028 6.82778 10.023C6.67703 10.0642 5.78489 10.2882 5.72762 10.2291C5.71433 9.72299 5.51913 9.24941 5.40687 8.76346C7.60307 8.49965 9.11241 6.52151 8.63862 4.31894C8.29405 2.7182 6.70314 1.48066 5.071 1.49806C3.19784 1.51776 1.65597 2.97377 1.46581 4.82458C0.981026 4.7055 0.507696 4.50901 0 4.50398C0.0696478 3.36857 0.678149 2.22309 1.48826 1.43394C3.2432 -0.275347 6.08181 -0.477787 8.07915 0.939751C9.81209 2.16951 10.592 4.31573 10.0957 6.37357C9.85608 7.36791 9.33785 8.15064 8.66061 8.89995V8.9004Z" fill="#2C4859"/>
</svg>
