<svg width="19" height="22" viewBox="0 0 19 22" fill="none" xmlns="http://www.w3.org/2000/svg">
<path d="M17.3053 0.199799L17.3463 0.204681C17.3598 0.207504 17.3736 0.21081 17.3863 0.2164C17.7749 0.386901 18.0473 0.728905 18.065 1.19101V1.19882L18.0553 16.1568C18.059 16.1829 18.0629 16.2083 18.065 16.233C18.1071 16.7256 18.1197 17.9132 18.0514 18.401V18.4019C18.0278 18.568 17.9364 18.7702 17.818 18.9303C17.7574 19.0121 17.6841 19.0916 17.5992 19.1519C17.5148 19.2119 17.4076 19.2613 17.2857 19.2613H15.8307V20.7633C15.8306 20.8751 15.7909 20.9825 15.7408 21.0719C15.6895 21.1634 15.6195 21.2499 15.5426 21.3248C15.4655 21.3997 15.3758 21.4681 15.2818 21.5172C15.1914 21.5644 15.0843 21.6 14.9732 21.5982L5.36288 21.6002C5.35696 21.6002 5.35023 21.6007 5.34433 21.6002C4.85465 21.5565 4.47592 21.2712 4.16171 20.9605C4.00399 20.8046 3.85492 20.6337 3.71445 20.4762C3.65647 20.4112 3.59942 20.3487 3.54355 20.2887C3.47834 20.2226 3.40985 20.1534 3.33847 20.0816C3.32578 20.0697 3.31408 20.057 3.30136 20.0455C3.29985 20.0441 3.29892 20.042 3.29745 20.0406C3.01455 19.7567 2.69165 19.435 2.36679 19.1109C1.61108 18.357 0.841271 17.5821 0.602142 17.276C0.371443 16.9808 0.276462 16.6962 0.204681 16.3541C0.201867 16.3406 0.199799 16.3268 0.199799 16.3131V3.39413C0.199799 3.38167 0.201389 3.36927 0.203705 3.35703C0.233543 3.19974 0.336729 3.00599 0.457611 2.85507C0.519889 2.77733 0.594272 2.7017 0.676361 2.64413C0.756349 2.58812 0.860307 2.53769 0.978119 2.53769H2.43222V1.03574C2.43229 0.831743 2.56154 0.643751 2.6832 0.515228C2.8099 0.381441 2.97492 0.262467 3.1246 0.210541L3.19003 0.199799H17.3053ZM1.23788 16.1158L4.76523 16.1568C4.78507 16.1571 4.80492 16.1606 4.82382 16.1666C5.06376 16.2431 5.31241 16.3974 5.43613 16.6725H5.43515C5.44892 16.7029 5.47612 16.7814 5.49472 16.8385C5.50516 16.8705 5.5153 16.9027 5.52304 16.9283C5.52688 16.941 5.53095 16.9539 5.53378 16.9644C5.53512 16.9694 5.53627 16.9757 5.53769 16.982C5.53841 16.9853 5.53967 16.9909 5.54062 16.9967C5.54127 17.0006 5.54355 17.0141 5.54355 17.0309V20.5426H14.7926V5.95761C14.7926 5.95442 14.7934 5.95098 14.7935 5.94785V3.59335H1.23788V16.1158ZM4.1207 19.4234C4.1966 19.4908 4.27364 19.5657 4.34335 19.6412C4.40534 19.7084 4.45682 19.7654 4.50644 19.8209V17.2105H1.98691L4.1207 19.4234ZM3.47031 2.53867H15.0523C15.1453 2.53867 15.2315 2.57576 15.2945 2.61191C15.3621 2.65065 15.4277 2.70223 15.4859 2.75546C15.5962 2.85637 15.7105 2.99496 15.7574 3.11972H15.7584C15.7721 3.15645 15.779 3.20037 15.7838 3.23398C15.7893 3.27283 15.7941 3.31956 15.7984 3.37167C15.8071 3.47626 15.8138 3.61104 15.8199 3.76425C15.8321 4.07114 15.8401 4.46046 15.8443 4.84921C15.8486 5.23813 15.8496 5.62863 15.8473 5.93808C15.845 6.23951 15.8397 6.48027 15.8307 6.55917V18.2047H17.026V16.0055C17.026 15.9635 17.0391 15.9324 17.0426 15.9244C17.0432 15.923 17.0439 15.9218 17.0445 15.9205L17.0279 1.30136L17.0191 1.25644H3.47031V2.53867Z" fill="#2C4859" stroke="#2C4859" stroke-width="0.4" stroke-linejoin="round"/>
</svg>
