<svg width="19" height="22" viewBox="0 0 19 22" fill="none" xmlns="http://www.w3.org/2000/svg">
<path d="M17.3053 0.199799L17.3463 0.204681C17.3599 0.207504 17.3736 0.21081 17.3864 0.2164C17.7749 0.386901 18.0473 0.728905 18.0651 1.19101V1.19882L18.0553 16.1568C18.059 16.1829 18.063 16.2083 18.0651 16.233C18.1071 16.7256 18.1198 17.9132 18.0514 18.401V18.4019C18.0278 18.568 17.9365 18.7702 17.818 18.9303C17.7575 19.0121 17.6841 19.0916 17.5992 19.1519C17.5148 19.2119 17.4076 19.2613 17.2858 19.2613H15.8307V20.7633C15.8307 20.8751 15.791 20.9825 15.7408 21.0719C15.6895 21.1634 15.6196 21.2499 15.5426 21.3248C15.4655 21.3997 15.3758 21.4681 15.2819 21.5172C15.1915 21.5644 15.0843 21.6 14.9733 21.5982L5.36292 21.6002C5.357 21.6002 5.35026 21.6007 5.34436 21.6002C4.85468 21.5565 4.47595 21.2712 4.16174 20.9605C4.00402 20.8046 3.85495 20.6337 3.71448 20.4762C3.6565 20.4112 3.59945 20.3487 3.54358 20.2887C3.47837 20.2226 3.40988 20.1534 3.3385 20.0816C3.32581 20.0697 3.31411 20.057 3.30139 20.0455C3.29988 20.0441 3.29895 20.042 3.29749 20.0406C3.01458 19.7567 2.69168 19.435 2.36682 19.1109C1.61111 18.357 0.841301 17.5821 0.602173 17.276C0.371473 16.9808 0.276492 16.6962 0.204712 16.3541C0.201898 16.3406 0.199829 16.3268 0.199829 16.3131V3.39413C0.199829 3.38167 0.20142 3.36927 0.203735 3.35703C0.233574 3.19974 0.33676 3.00599 0.457642 2.85507C0.51992 2.77733 0.594303 2.7017 0.676392 2.64413C0.756379 2.58812 0.860337 2.53769 0.978149 2.53769H2.43225V1.03574C2.43232 0.831743 2.56157 0.643751 2.68323 0.515228C2.80993 0.381441 2.97495 0.262467 3.12463 0.210541L3.19006 0.199799H17.3053ZM1.23792 16.1158L4.76526 16.1568C4.7851 16.1571 4.80495 16.1606 4.82385 16.1666C5.06379 16.2431 5.31244 16.3974 5.43616 16.6725H5.43518C5.44895 16.7029 5.47615 16.7814 5.49475 16.8385C5.50519 16.8705 5.51533 16.9027 5.52307 16.9283C5.52691 16.941 5.53098 16.9539 5.53381 16.9644C5.53515 16.9694 5.5363 16.9757 5.53772 16.982C5.53844 16.9853 5.5397 16.9909 5.54065 16.9967C5.5413 17.0006 5.54358 17.0141 5.54358 17.0309V20.5426H14.7926V5.95761C14.7926 5.95442 14.7935 5.95098 14.7936 5.94785V3.59335H1.23792V16.1158ZM4.12073 19.4234C4.19663 19.4908 4.27367 19.5657 4.34338 19.6412C4.40538 19.7084 4.45685 19.7654 4.50647 19.8209V17.2105H1.98694L4.12073 19.4234ZM3.47034 2.53867H15.0524C15.1454 2.53867 15.2315 2.57576 15.2946 2.61191C15.3621 2.65065 15.4278 2.70223 15.486 2.75546C15.5962 2.85637 15.7105 2.99496 15.7574 3.11972H15.7584C15.7721 3.15645 15.7791 3.20037 15.7838 3.23398C15.7893 3.27283 15.7942 3.31956 15.7985 3.37167C15.8071 3.47626 15.8138 3.61104 15.8199 3.76425C15.8322 4.07114 15.8401 4.46046 15.8444 4.84921C15.8486 5.23813 15.8496 5.62863 15.8473 5.93808C15.845 6.23951 15.8397 6.48027 15.8307 6.55917V18.2047H17.026V16.0055C17.026 15.9635 17.0392 15.9324 17.0426 15.9244C17.0432 15.923 17.044 15.9218 17.0446 15.9205L17.028 1.30136L17.0192 1.25644H3.47034V2.53867Z" fill="#2C4859" stroke="#2C4859" stroke-width="0.4" stroke-linejoin="round"/>
</svg>
