<svg width="15" height="16" viewBox="0 0 15 16" fill="none" xmlns="http://www.w3.org/2000/svg">
<path d="M8.07106 0.292893C7.68053 -0.0976315 7.04737 -0.0976314 6.65685 0.292893L0.292884 6.65685C-0.0976399 7.04738 -0.0976399 7.68054 0.292885 8.07107C0.683409 8.46159 1.31657 8.46159 1.7071 8.07107L7.36395 2.41421L13.0208 8.07107C13.4113 8.46159 14.0445 8.46159 14.435 8.07107C14.8255 7.68054 14.8255 7.04738 14.435 6.65685L8.07106 0.292893ZM7.36395 8.5L6.36395 8.5L6.36395 15.5L7.36395 15.5L8.36395 15.5L8.36395 8.5L7.36395 8.5ZM7.36395 1L6.36395 1L6.36395 8.5L7.36395 8.5L8.36395 8.5L8.36395 1L7.36395 1Z" fill="white"/>
</svg>
