<svg width="10" height="10" viewBox="0 0 10 10" fill="none" xmlns="http://www.w3.org/2000/svg">
<path d="M7.98734 6.00552H7.79426C6.94545 6.00552 6.09845 6.00374 5.24964 6.00909C5.12395 6.00909 5.09117 5.97519 5.09299 5.85387C5.10028 5.38286 5.09481 4.91185 5.09663 4.44085C5.09663 4.39624 5.10028 4.34986 5.1021 4.29812H9.92541C9.95091 4.50686 9.99281 4.71917 9.99827 4.93148C10.0292 6.03942 9.79426 7.08491 9.1531 8.01444C8.40993 9.09383 7.35528 9.70579 6.05292 9.9181C5.02742 10.0858 4.02195 10.0073 3.07113 9.5809C1.39718 8.82979 0.377143 7.55414 0.0693105 5.77894C-0.367848 3.24549 1.3061 0.763773 3.87259 0.158955C5.57022 -0.240688 7.11849 0.109 8.45 1.25619C8.47186 1.27403 8.49736 1.28652 8.53561 1.3115C8.0602 1.7611 7.60301 2.19285 7.14763 2.62283C6.97095 2.49972 6.80702 2.3677 6.62669 2.266C5.56294 1.66832 4.49372 1.72006 3.47186 2.3338C2.43361 2.95824 1.94363 3.91096 1.96184 5.0974C1.98552 6.60855 3.14763 7.90739 4.67405 8.109C5.7888 8.2553 6.76512 7.96092 7.49736 7.07599C7.75055 6.77091 7.89627 6.41408 7.98916 6.00731L7.98734 6.00552Z" fill="black"/>
</svg>
