<svg width="7" height="13" viewBox="0 0 7 13" fill="none" xmlns="http://www.w3.org/2000/svg">
<path d="M2.13805 13C1.99158 12.9204 1.95286 12.7935 1.95286 12.6309C1.95623 10.9295 1.95455 9.22816 1.95455 7.52676C1.95455 7.47259 1.95455 7.41672 1.95455 7.34731C1.90404 7.34393 1.85859 7.34054 1.81481 7.34054C1.3266 7.34054 0.838384 7.34054 0.350168 7.34054C0.0942761 7.34054 0.0016835 7.24743 0 6.9901C0 6.33494 0 5.67808 0 5.02292C0 4.76729 0.0976431 4.67248 0.351852 4.67248C0.835017 4.67248 1.31987 4.67248 1.80303 4.67248C1.84848 4.67248 1.89394 4.67248 1.95118 4.67248C1.95118 4.61323 1.95118 4.56752 1.95118 4.52181C1.95286 4.00208 1.93939 3.48066 1.96128 2.96093C1.99832 2.09246 2.28283 1.32218 2.94276 0.729652C3.41582 0.309806 3.97475 0.0694101 4.59259 0.0321656C5.30135 -0.0101576 6.01347 0.00507879 6.72391 0C6.88047 0 6.9697 0.0897252 6.99327 0.247168C7 0.289491 7.00168 0.331814 7.00168 0.374137C7.00168 0.961584 7.00168 1.55072 7.00168 2.13817C7.00168 2.42935 6.91582 2.51231 6.62626 2.51569C6.20539 2.52077 5.78451 2.51908 5.36532 2.5377C5.12795 2.54786 4.90067 2.61727 4.78956 2.85597C4.73569 2.97109 4.69697 3.10483 4.69529 3.2318C4.68518 3.70582 4.69024 4.17815 4.69024 4.67248H4.8266C5.41077 4.67248 5.99663 4.67248 6.58081 4.67248C6.82323 4.67248 6.91751 4.7639 6.91919 5.00768C6.91919 5.67639 6.91919 6.3451 6.91919 7.0138C6.91919 7.25081 6.8266 7.34054 6.58754 7.34054C6.00673 7.34054 5.42593 7.34054 4.84512 7.34054C4.79966 7.34054 4.75421 7.34054 4.68855 7.34054V7.50814C4.68855 9.20953 4.68855 10.9109 4.69024 12.6123C4.69024 12.7765 4.65488 12.9103 4.51347 13.0017H2.13973L2.13805 13Z" fill="black"/>
</svg>
