<svg width="15" height="16" viewBox="0 0 15 16" fill="none" xmlns="http://www.w3.org/2000/svg">
<path d="M6.65685 15.2071C7.04738 15.5976 7.68054 15.5976 8.07107 15.2071L14.435 8.84315C14.8256 8.45262 14.8256 7.81946 14.435 7.42893C14.0445 7.03841 13.4113 7.03841 13.0208 7.42893L7.36396 13.0858L1.70711 7.42893C1.31658 7.03841 0.683417 7.03841 0.292892 7.42893C-0.0976323 7.81946 -0.0976323 8.45262 0.292892 8.84315L6.65685 15.2071ZM7.36396 7L8.36396 7L8.36396 4.37114e-08L7.36396 0L6.36396 -4.37114e-08L6.36396 7L7.36396 7ZM7.36396 14.5L8.36396 14.5L8.36396 7L7.36396 7L6.36396 7L6.36396 14.5L7.36396 14.5Z" fill="#D9A74B"/>
</svg>
