<svg width="19" height="22" viewBox="0 0 19 22" fill="none" xmlns="http://www.w3.org/2000/svg">
<path d="M17.3052 0.199799L17.3462 0.204681C17.3597 0.207504 17.3735 0.21081 17.3862 0.2164C17.7748 0.386901 18.0472 0.728905 18.0649 1.19101V1.19882L18.0552 16.1568C18.0589 16.1829 18.0628 16.2083 18.0649 16.233C18.107 16.7256 18.1196 17.9132 18.0513 18.401V18.4019C18.0277 18.568 17.9363 18.7702 17.8179 18.9303C17.7573 19.0121 17.684 19.0916 17.5991 19.1519C17.5147 19.2119 17.4075 19.2613 17.2856 19.2613H15.8306V20.7633C15.8305 20.8751 15.7909 20.9825 15.7407 21.0719C15.6894 21.1634 15.6194 21.2499 15.5425 21.3248C15.4654 21.3997 15.3757 21.4681 15.2817 21.5172C15.1914 21.5644 15.0842 21.6 14.9731 21.5982L5.36279 21.6002C5.35687 21.6002 5.35013 21.6007 5.34424 21.6002C4.85455 21.5565 4.47582 21.2712 4.16162 20.9605C4.0039 20.8046 3.85482 20.6337 3.71436 20.4762C3.65638 20.4112 3.59932 20.3487 3.54346 20.2887C3.47825 20.2226 3.40975 20.1534 3.33838 20.0816C3.32569 20.0697 3.31399 20.057 3.30127 20.0455C3.29976 20.0441 3.29883 20.042 3.29736 20.0406C3.01446 19.7567 2.69156 19.435 2.3667 19.1109C1.61099 18.357 0.841179 17.5821 0.602051 17.276C0.371351 16.9808 0.27637 16.6962 0.20459 16.3541C0.201776 16.3406 0.199707 16.3268 0.199707 16.3131V3.39413C0.199707 3.38167 0.201298 3.36927 0.203613 3.35703C0.233452 3.19974 0.336638 3.00599 0.45752 2.85507C0.519798 2.77733 0.59418 2.7017 0.67627 2.64413C0.756257 2.58812 0.860215 2.53769 0.978027 2.53769H2.43213V1.03574C2.4322 0.831743 2.56145 0.643751 2.68311 0.515228C2.80981 0.381441 2.97482 0.262467 3.12451 0.210541L3.18994 0.199799H17.3052ZM1.23779 16.1158L4.76514 16.1568C4.78498 16.1571 4.80483 16.1606 4.82373 16.1666C5.06367 16.2431 5.31232 16.3974 5.43604 16.6725H5.43506C5.44883 16.7029 5.47603 16.7814 5.49463 16.8385C5.50507 16.8705 5.51521 16.9027 5.52295 16.9283C5.52679 16.941 5.53086 16.9539 5.53369 16.9644C5.53502 16.9694 5.53618 16.9757 5.5376 16.982C5.53832 16.9853 5.53957 16.9909 5.54053 16.9967C5.54118 17.0006 5.54346 17.0141 5.54346 17.0309V20.5426H14.7925V5.95761C14.7925 5.95442 14.7933 5.95098 14.7935 5.94785V3.59335H1.23779V16.1158ZM4.12061 19.4234C4.19651 19.4908 4.27355 19.5657 4.34326 19.6412C4.40525 19.7084 4.45673 19.7654 4.50635 19.8209V17.2105H1.98682L4.12061 19.4234ZM3.47021 2.53867H15.0522C15.1452 2.53867 15.2314 2.57576 15.2944 2.61191C15.362 2.65065 15.4276 2.70223 15.4858 2.75546C15.5961 2.85637 15.7104 2.99496 15.7573 3.11972H15.7583C15.772 3.15645 15.7789 3.20037 15.7837 3.23398C15.7892 3.27283 15.794 3.31956 15.7983 3.37167C15.807 3.47626 15.8137 3.61104 15.8198 3.76425C15.832 4.07114 15.84 4.46046 15.8442 4.84921C15.8485 5.23813 15.8495 5.62863 15.8472 5.93808C15.8449 6.23951 15.8396 6.48027 15.8306 6.55917V18.2047H17.0259V16.0055C17.0259 15.9635 17.039 15.9324 17.0425 15.9244C17.0431 15.923 17.0438 15.9218 17.0444 15.9205L17.0278 1.30136L17.019 1.25644H3.47021V2.53867Z" fill="#2C4859" stroke="#2C4859" stroke-width="0.4" stroke-linejoin="round"/>
</svg>
