<svg width="19" height="22" viewBox="0 0 19 22" fill="none" xmlns="http://www.w3.org/2000/svg">
<path d="M17.3052 0.199829L17.3462 0.204712C17.3597 0.207535 17.3735 0.210841 17.3862 0.216431C17.7748 0.386932 18.0472 0.728936 18.0649 1.19104V1.19885L18.0552 16.1569C18.0589 16.1829 18.0628 16.2083 18.0649 16.233C18.107 16.7256 18.1196 17.9132 18.0513 18.401V18.402C18.0277 18.568 17.9363 18.7702 17.8179 18.9303C17.7573 19.0121 17.684 19.0916 17.5991 19.152C17.5147 19.2119 17.4075 19.2613 17.2856 19.2614H15.8306V20.7633C15.8305 20.8752 15.7909 20.9825 15.7407 21.0719C15.6894 21.1634 15.6194 21.25 15.5425 21.3248C15.4654 21.3998 15.3757 21.4681 15.2817 21.5172C15.1914 21.5644 15.0842 21.6 14.9731 21.5983L5.36279 21.6002C5.35687 21.6002 5.35013 21.6007 5.34424 21.6002C4.85455 21.5566 4.47582 21.2713 4.16162 20.9606C4.0039 20.8046 3.85482 20.6337 3.71436 20.4762C3.65638 20.4112 3.59932 20.3487 3.54346 20.2887C3.47825 20.2227 3.40975 20.1534 3.33838 20.0817C3.32569 20.0698 3.31399 20.057 3.30127 20.0455C3.29976 20.0442 3.29883 20.0421 3.29736 20.0406C3.01446 19.7567 2.69156 19.4351 2.3667 19.111C1.61099 18.357 0.841179 17.5822 0.602051 17.276C0.371351 16.9809 0.27637 16.6962 0.20459 16.3541C0.201776 16.3407 0.199707 16.3269 0.199707 16.3131V3.39417C0.199707 3.3817 0.201298 3.3693 0.203613 3.35706C0.233452 3.19977 0.336638 3.00602 0.45752 2.8551C0.519798 2.77736 0.59418 2.70173 0.67627 2.64417C0.756257 2.58815 0.860215 2.53772 0.978027 2.53772H2.43213V1.03577C2.4322 0.831774 2.56145 0.643781 2.68311 0.515259C2.80981 0.381471 2.97482 0.262498 3.12451 0.210571L3.18994 0.199829H17.3052ZM1.23779 16.1158L4.76514 16.1569C4.78498 16.1571 4.80483 16.1606 4.82373 16.1666C5.06367 16.2432 5.31232 16.3974 5.43604 16.6725H5.43506C5.44883 16.703 5.47603 16.7814 5.49463 16.8385C5.50507 16.8706 5.51521 16.9027 5.52295 16.9283C5.52679 16.9411 5.53086 16.9539 5.53369 16.9645C5.53502 16.9694 5.53618 16.9757 5.5376 16.9821C5.53832 16.9853 5.53957 16.9909 5.54053 16.9967C5.54118 17.0007 5.54346 17.0141 5.54346 17.0309V20.5426H14.7925V5.95764C14.7925 5.95445 14.7933 5.95101 14.7935 5.94788V3.59338H1.23779V16.1158ZM4.12061 19.4235C4.19651 19.4909 4.27355 19.5657 4.34326 19.6412C4.40525 19.7084 4.45673 19.7654 4.50635 19.8209V17.2106H1.98682L4.12061 19.4235ZM3.47021 2.5387H15.0522C15.1452 2.5387 15.2314 2.57579 15.2944 2.61194C15.362 2.65068 15.4276 2.70226 15.4858 2.75549C15.5961 2.8564 15.7104 2.99499 15.7573 3.11975H15.7583C15.772 3.15648 15.7789 3.2004 15.7837 3.23401C15.7892 3.27286 15.794 3.31959 15.7983 3.3717C15.807 3.47629 15.8137 3.61107 15.8198 3.76428C15.832 4.07117 15.84 4.46049 15.8442 4.84924C15.8485 5.23816 15.8495 5.62866 15.8472 5.93811C15.8449 6.23954 15.8396 6.4803 15.8306 6.5592V18.2047H17.0259V16.0055C17.0259 15.9635 17.039 15.9324 17.0425 15.9244C17.0431 15.9231 17.0438 15.9218 17.0444 15.9205L17.0278 1.30139L17.019 1.25647H3.47021V2.5387Z" fill="#2C4859" stroke="#2C4859" stroke-width="0.4" stroke-linejoin="round"/>
</svg>
