<svg width="15" height="16" viewBox="0 0 15 16" fill="none" xmlns="http://www.w3.org/2000/svg">
<path d="M8.07107 0.292893C7.68055 -0.0976315 7.04738 -0.0976314 6.65686 0.292893L0.2929 6.65685C-0.0976247 7.04738 -0.0976246 7.68054 0.2929 8.07107C0.683424 8.46159 1.31659 8.46159 1.70711 8.07107L7.36397 2.41421L13.0208 8.07107C13.4113 8.46159 14.0445 8.46159 14.435 8.07107C14.8256 7.68054 14.8256 7.04738 14.435 6.65685L8.07107 0.292893ZM7.36397 8.5L6.36397 8.5L6.36397 15.5L7.36397 15.5L8.36397 15.5L8.36397 8.5L7.36397 8.5ZM7.36397 1L6.36397 1L6.36397 8.5L7.36397 8.5L8.36397 8.5L8.36397 1L7.36397 1Z" fill="#D9A74B"/>
</svg>
