<svg width="15" height="16" viewBox="0 0 15 16" fill="none" xmlns="http://www.w3.org/2000/svg">
<path d="M6.65685 15.2071C7.04737 15.5976 7.68053 15.5976 8.07106 15.2071L14.435 8.84315C14.8255 8.45262 14.8255 7.81946 14.435 7.42893C14.0445 7.03841 13.4113 7.03841 13.0208 7.42893L7.36395 13.0858L1.7071 7.42893C1.31657 7.03841 0.683409 7.03841 0.292885 7.42893C-0.0976399 7.81946 -0.0976399 8.45262 0.292884 8.84315L6.65685 15.2071ZM7.36395 7L8.36395 7L8.36395 4.37114e-08L7.36395 0L6.36395 -4.37114e-08L6.36395 7L7.36395 7ZM7.36395 14.5L8.36395 14.5L8.36395 7L7.36395 7L6.36395 7L6.36395 14.5L7.36395 14.5Z" fill="white"/>
</svg>
