<svg width="17" height="17" viewBox="0 0 17 17" fill="none" xmlns="http://www.w3.org/2000/svg">
<path d="M0.00312059 16.1224C-0.0871466 13.0913 1.78968 10.1797 4.49357 8.8854C4.11921 8.43793 3.7247 7.99366 3.46168 7.46695C1.71132 3.96318 4.24568 -0.0508104 8.13679 0.000486616C11.7012 0.0476615 14.0953 3.48777 12.9374 6.861C12.6731 7.63092 12.1654 8.27854 11.6416 8.8854C13.381 9.71715 14.8115 11.24 15.5442 13.0231C15.8347 13.7307 16.1289 14.801 16.166 15.5623C16.1738 15.7262 16.0936 15.9406 16.1316 16.1229H0.00312059V16.1224ZM7.50584 1.52291C4.95774 1.89252 3.6326 4.83844 4.96094 7.02176C6.46158 9.4886 10.1483 9.2944 11.3603 6.65811C12.5759 4.01402 10.3738 1.10704 7.50584 1.52291ZM14.4367 14.6105C14.0335 12.6571 12.6007 10.9854 10.8017 10.16C10.6496 10.0904 10.245 9.89027 10.1057 9.89165C9.96642 9.89302 9.89127 9.98737 9.77306 10.0185C8.81265 10.2709 7.79268 10.39 6.81852 10.1573C6.60133 10.1055 6.20086 9.88753 5.98642 9.89623C5.66659 9.90951 4.53481 10.586 4.23102 10.7999C3.3957 11.3875 2.61675 12.3049 2.16174 13.22C1.94409 13.6579 1.82863 14.1351 1.65313 14.589L14.4363 14.6114L14.4367 14.6105Z" fill="#2C4859"/>
</svg>
