<svg width="19" height="22" viewBox="0 0 19 22" fill="none" xmlns="http://www.w3.org/2000/svg">
<path d="M17.3057 0.199707L17.3467 0.20459C17.3602 0.207413 17.374 0.210719 17.3867 0.216309C17.7753 0.38681 18.0477 0.728814 18.0654 1.19092V1.19873L18.0557 16.1567C18.0594 16.1828 18.0633 16.2082 18.0654 16.2329C18.1075 16.7255 18.1201 17.9131 18.0518 18.4009V18.4019C18.0282 18.5679 17.9368 18.7701 17.8184 18.9302C17.7578 19.012 17.6845 19.0915 17.5996 19.1519C17.5152 19.2118 17.408 19.2612 17.2861 19.2612H15.8311V20.7632C15.831 20.875 15.7913 20.9824 15.7412 21.0718C15.6899 21.1633 15.6199 21.2498 15.543 21.3247C15.4659 21.3996 15.3762 21.468 15.2822 21.5171C15.1918 21.5643 15.0847 21.5999 14.9736 21.5981L5.36328 21.6001C5.35736 21.6001 5.35062 21.6006 5.34473 21.6001C4.85504 21.5564 4.47631 21.2711 4.16211 20.9604C4.00439 20.8045 3.85531 20.6336 3.71484 20.4761C3.65687 20.4111 3.59981 20.3486 3.54395 20.2886C3.47873 20.2225 3.41024 20.1533 3.33887 20.0815C3.32618 20.0696 3.31447 20.0569 3.30176 20.0454C3.30025 20.044 3.29932 20.0419 3.29785 20.0405C3.01495 19.7566 2.69205 19.4349 2.36719 19.1108C1.61148 18.3569 0.841667 17.582 0.602539 17.2759C0.371839 16.9807 0.276858 16.6961 0.205078 16.354C0.202264 16.3405 0.200195 16.3267 0.200195 16.313V3.39404C0.200195 3.38158 0.201786 3.36918 0.204102 3.35693C0.23394 3.19964 0.337126 3.0059 0.458008 2.85498C0.520286 2.77724 0.594669 2.70161 0.676758 2.64404C0.756746 2.58802 0.860703 2.5376 0.978516 2.5376H2.43262V1.03564C2.43269 0.831652 2.56194 0.643659 2.68359 0.515137C2.8103 0.381349 2.97531 0.262376 3.125 0.210449L3.19043 0.199707H17.3057ZM1.23828 16.1157L4.76562 16.1567C4.78547 16.157 4.80531 16.1605 4.82422 16.1665C5.06416 16.243 5.3128 16.3973 5.43652 16.6724H5.43555C5.44932 16.7029 5.47652 16.7813 5.49512 16.8384C5.50556 16.8704 5.51569 16.9026 5.52344 16.9282C5.52727 16.9409 5.53135 16.9538 5.53418 16.9644C5.53551 16.9693 5.53667 16.9756 5.53809 16.9819C5.5388 16.9852 5.54006 16.9908 5.54102 16.9966C5.54167 17.0005 5.54395 17.014 5.54395 17.0308V20.5425H14.793V5.95752C14.793 5.95433 14.7938 5.95089 14.7939 5.94775V3.59326H1.23828V16.1157ZM4.12109 19.4233C4.197 19.4907 4.27404 19.5656 4.34375 19.6411C4.40574 19.7083 4.45722 19.7653 4.50684 19.8208V17.2104H1.9873L4.12109 19.4233ZM3.4707 2.53857H15.0527C15.1457 2.53857 15.2319 2.57567 15.2949 2.61182C15.3624 2.65056 15.4281 2.70214 15.4863 2.75537C15.5966 2.85628 15.7109 2.99487 15.7578 3.11963H15.7588C15.7725 3.15636 15.7794 3.20027 15.7842 3.23389C15.7897 3.27274 15.7945 3.31946 15.7988 3.37158C15.8074 3.47617 15.8142 3.61095 15.8203 3.76416C15.8325 4.07104 15.8405 4.46037 15.8447 4.84912C15.849 5.23804 15.85 5.62854 15.8477 5.93799C15.8454 6.23942 15.8401 6.48018 15.8311 6.55908V18.2046H17.0264V16.0054C17.0264 15.9634 17.0395 15.9323 17.043 15.9243C17.0436 15.923 17.0443 15.9217 17.0449 15.9204L17.0283 1.30127L17.0195 1.25635H3.4707V2.53857Z" fill="#2C4859" stroke="#2C4859" stroke-width="0.4" stroke-linejoin="round"/>
</svg>
